General
General
Format : Matroska
Format version : Version 2
File size : 932 MiB
Duration : 1h 46mn
Overall bit rate : 1 227 Kbps
Encoded date : UTC 2011-12-29 04:33:51
Writing application : mkvmerge v4.3.0 ('Escape from the Island') built on Sep 5 2010 10:30:51
Writing library : libebml v1.0.0 + libmatroska v1.0.0

Video
ID : 1
Format : AVC
Format/Info : Advanced Video Codec
Format profile : High@L3.1
Format settings, CABAC : Yes
Format settings, ReFrames : 4 frames
Muxing mode : Header stripping
Codec ID : V_MPEG4/ISO/AVC
Duration : 1h 46mn
Bit rate : 1 050 Kbps
Width : 1 280 pixels
Height : 528 pixels
Display aspect ratio : 2.40:1
Frame rate : 23.976 fps
Color space : YUV
Chroma subsampling : 4:2:0
Bit depth : 8 bits
Scan type : Progressive
Bits/(Pixel*Frame) : 0.065
Stream size : 779 MiB (84%)

Audio #1
ID : 2
Format : MPEG Audio
Format version : Version 1
Format profile : Layer 3
Mode : Joint stereo
Mode extension : MS Stereo
Muxing mode : Header stripping
Codec ID : A_MPEG/L3
Codec ID/Hint : MP3
Duration : 1h 46mn
Bit rate mode : Constant
Bit rate : 128 Kbps
Channel(s) : 2 channels
Sampling rate : 48.0 KHz
Compression mode : Lossy
Delay relative to video : 2s 0ms
Stream size : 97.1 MiB (10%)
Title : Hindi Audio-=KSRR=-
Writing library : LAME3.98r
Encoding settings : -m j -V 4 -q 2 -lowpass 17 -b 128
Language : Hindi

Audio #2
ID : 3
Format : MPEG Audio
Format version : Version 2
Format profile : Layer 3
Mode : Joint stereo
Mode extension : MS Stereo
Muxing mode : Header stripping
Codec ID : A_MPEG/L3
Codec ID/Hint : MP3
Duration : 1h 46mn
Bit rate mode : Constant
Bit rate : 48.0 Kbps
Channel(s) : 2 channels
Sampling rate : 22.05 KHz
Compression mode : Lossy
Stream size : 36.4 MiB (4%)
Title : English Audio -=KSRR=-
Writing library : LAME3.98.4UUUUUULAME
Language : English


Screens
 
http://www.postimg.com/56000/photo-55993.jpg
 
http://www.postimg.com/56000/photo-55994.jpg
 
http://www.postimg.com/56000/photo-55995.jpg
 
http://www.postimg.com/56000/photo-55999.jpg
 
http://www.postimg.com/56000/photo-56000.jpg